<svg width="20" height="21" viewBox="0 0 20 21" fill="none" xmlns="http://www.w3.org/2000/svg">
<path d="M12.9499 10.2345L8.23328 5.52618C8.15581 5.44807 8.06364 5.38607 7.96209 5.34377C7.86054 5.30146 7.75162 5.27968 7.64161 5.27968C7.5316 5.27968 7.42268 5.30146 7.32113 5.34377C7.21958 5.38607 7.12741 5.44807 7.04994 5.52618C6.89474 5.68231 6.80762 5.89352 6.80762 6.11368C6.80762 6.33383 6.89474 6.54504 7.04994 6.70118L11.1749 10.8678L7.04994 14.9928C6.89474 15.149 6.80762 15.3602 6.80762 15.5803C6.80762 15.8005 6.89474 16.0117 7.04994 16.1678C7.12712 16.2466 7.21916 16.3092 7.32072 16.3521C7.42229 16.3951 7.53135 16.4174 7.64161 16.4178C7.75187 16.4174 7.86094 16.3951 7.9625 16.3521C8.06406 16.3092 8.1561 16.2466 8.23328 16.1678L12.9499 11.4595C13.0345 11.3815 13.102 11.2868 13.1482 11.1813C13.1944 11.0759 13.2182 10.9621 13.2182 10.847C13.2182 10.7319 13.1944 10.6181 13.1482 10.5127C13.102 10.4073 13.0345 10.3125 12.9499 10.2345V10.2345Z" fill="#00715D"/>
</svg>
